<svg width="24" height="24" viewBox="0 0 24 24" fill="none" xmlns="http://www.w3.org/2000/svg">
<path d="M11.7561 4.76845L11.3334 5.03551C11.425 5.18052 11.5846 5.26845 11.7561 5.26845C11.9276 5.26845 12.0872 5.18052 12.1788 5.03551L11.7561 4.76845ZM17.6751 15.4417L18.0618 15.7587L17.6751 15.4417ZM12.5239 20.5965L12.8564 20.9699L12.8564 20.9699L12.5239 20.5965ZM12.2612 20.8305L12.5941 21.2036L12.5941 21.2036L12.2612 20.8305ZM11.251 20.8305L10.9181 21.2036L11.251 20.8305ZM10.9883 20.5965L11.3208 20.2231V20.2231L10.9883 20.5965ZM5.83702 15.4417L5.45038 15.7587L5.83702 15.4417ZM7.80087 1.86643C4.55253 1.86643 1.92773 4.50868 1.92773 7.75756H2.92773C2.92773 5.05714 5.10864 2.86643 7.80087 2.86643V1.86643ZM21.5844 7.75756C21.5844 4.50868 18.9596 1.86643 15.7113 1.86643V2.86643C18.4035 2.86643 20.5844 5.05714 20.5844 7.75756H21.5844ZM18.0618 15.7587C19.9023 13.514 21.5844 10.7215 21.5844 7.75756H20.5844C20.5844 10.3628 19.0914 12.9258 17.2885 15.1246L18.0618 15.7587ZM12.8564 20.9699C14.2437 19.7346 16.308 17.8976 18.0618 15.7587L17.2885 15.1246C15.5913 17.1946 13.5837 18.9833 12.1914 20.2231L12.8564 20.9699ZM12.5941 21.2036C12.6785 21.1283 12.766 21.0504 12.8564 20.9699L12.1914 20.2231C12.101 20.3035 12.0132 20.3817 11.9283 20.4575L12.5941 21.2036ZM10.9181 21.2036C11.3955 21.6296 12.1166 21.6296 12.5941 21.2036L11.9283 20.4575C11.8302 20.545 11.682 20.545 11.5838 20.4575L10.9181 21.2036ZM10.6558 20.9699C10.7462 21.0504 10.8337 21.1283 10.9181 21.2036L11.5838 20.4575C11.499 20.3817 11.4111 20.3035 11.3208 20.2231L10.6558 20.9699ZM5.45038 15.7587C7.20417 17.8976 9.26846 19.7346 10.6558 20.9699L11.3208 20.2231C9.92844 18.9833 7.92092 17.1946 6.22367 15.1246L5.45038 15.7587ZM1.92773 7.75756C1.92773 10.7215 3.60989 13.514 5.45038 15.7587L6.22367 15.1246C4.42075 12.9258 2.92773 10.3628 2.92773 7.75756H1.92773ZM15.7113 1.86643C14.6015 1.86643 13.752 2.10029 13.0426 2.57636C12.3457 3.04411 11.8292 3.71654 11.3334 4.50138L12.1788 5.03551C12.6532 4.28459 13.0794 3.75602 13.5999 3.4067C14.108 3.06571 14.751 2.86643 15.7113 2.86643V1.86643ZM12.1788 4.50138C11.6829 3.71654 11.1665 3.04411 10.4695 2.57636C9.76013 2.10029 8.91064 1.86643 7.80087 1.86643V2.86643C8.76118 2.86643 9.40416 3.06571 9.91228 3.4067C10.4328 3.75602 10.859 4.28459 11.3334 5.03551L12.1788 4.50138Z" fill="white"/>
</svg>
